<?xml version="1.0" encoding="utf-8"?>
<!-- Generator: Adobe Illustrator 16.0.0, SVG Export Plug-In . SVG Version: 6.00 Build 0)  -->
<!DOCTYPE svg PUBLIC "-//W3C//DTD SVG 1.1//EN" "http://www.w3.org/Graphics/SVG/1.1/DTD/svg11.dtd">
<svg version="1.1" id="Logo" xmlns="http://www.w3.org/2000/svg" xmlns:xlink="http://www.w3.org/1999/xlink" x="0px" y="0px"
	 width="1000px" height="300px" viewBox="0 0 1000 300" enable-background="new 0 0 1000 300" xml:space="preserve">
<g>
	<path fill="#3A1244" d="M364.88,163.35c0,22.61-6.398,40.706-19.195,54.287c-12.796,13.582-29.714,20.373-50.754,20.373
		c-21.511,0-38.821-6.791-51.933-20.373c-13.11-13.581-19.666-31.677-19.666-54.287V76.679h38.861v86.671
		c0,11.933,2.983,21.394,8.95,28.38c5.966,6.987,13.896,10.48,23.787,10.48c9.421,0,16.957-3.493,22.609-10.48
		c5.652-6.986,8.479-16.447,8.479-28.38V76.679h38.86V163.35z"/>
	<path fill="#3A1244" d="M573.787,234.477h-37.684v-78.663l-41.216,78.663h-24.022l-41.452-79.135v79.135H391.73V76.679h38.154
		l52.991,97.74l52.992-97.74h37.919V234.477z"/>
	<path fill="#3A1244" d="M678.831,76.679c17.742,0,31.834,4.985,42.275,14.955c10.441,9.971,15.662,23.121,15.662,39.45
		c0,16.644-5.378,29.99-16.133,40.039c-10.756,10.049-25.24,15.073-43.454,15.073H639.97v48.281h-38.86V76.679H678.831z
		 M674.355,153.693c7.537,0,13.464-2.002,17.782-6.006c4.317-4.004,6.477-9.381,6.477-16.133c0-6.438-2.198-11.658-6.595-15.662
		s-10.284-6.006-17.664-6.006H639.97v43.807H674.355z"/>
	<path fill="#3A1244" d="M853.82,234.477l-11.069-28.733h-66.416l-11.07,28.733h-41.687l65.945-157.798h39.803l65.945,157.798
		H853.82z M809.543,120.485l-20.02,51.814h40.274L809.543,120.485z"/>
</g>
<g>
	<path fill="#49B7C4" d="M947.638,216.892v-27.874h15.312v27.874h20.065v17.585h-61.396v-49.022h15.203v31.438H947.638z"/>
	<path fill="#49B7C4" d="M983.015,168.044h-61.396v-17.591h61.396V168.044z"/>
	<path fill="#49B7C4" d="M936.743,95.932h46.271v17.68h-46.271v19.245h-15.125V76.682h15.125V95.932z"/>
</g>
<path fill="#49B7C4" d="M121.738,243.578c0,12.004,9.745,21.725,21.74,21.725c11.992,0,21.734-9.721,21.734-21.725l0,0
	c0-11.99-9.742-21.708-21.734-21.708C131.483,221.87,121.738,231.588,121.738,243.578L121.738,243.578z"/>
<path fill="#FF5900" d="M47.078,63.42c0,12.004,9.732,21.724,21.73,21.724c12.004,0,21.731-9.72,21.731-21.724l0,0
	c0-11.988-9.727-21.716-21.731-21.716C56.811,41.704,47.078,51.432,47.078,63.42L47.078,63.42z"/>
<path fill="#3A1244" d="M191.653,174.483c-1.001-1.799-2.911-2.917-4.979-2.917c-1.625,0-3.156,0.682-4.233,1.869l0,0
	c-9.98,10.971-24.136,17.235-38.963,17.235c-20.167,0-38.55-11.5-47.348-29.632v0.006c-0.815-1.66-2.376-2.836-4.216-3.133l0,0
	c-14.741-2.469-28.777-8.146-41.066-16.63l0,0c-0.955-0.658-2.105-1.001-3.267-1.001c-3.142,0-5.704,2.562-5.704,5.709
	c0,0.166,0.006,0.317,0.012,0.475l0,0c3.252,39.188,28.776,73.021,65.571,86.906l0,0c1.095,0.401,2.23,0.608,3.377,0.608
	c3.389,0,6.516-1.781,8.222-4.707l0,0c5.092-8.65,14.365-13.973,24.418-13.973c4.411,0,8.778,1.037,12.717,3.028l0,0
	c14.816,7.19,24.214,22.205,24.214,38.684c0,5.281-0.978,10.528-2.879,15.454l0,0c-0.154,0.437-0.259,0.902-0.259,1.371
	c0,2.105,1.718,3.814,3.826,3.814c1.176,0,2.294-0.551,3.011-1.482l0,0c12.53-16.182,19.337-36.072,19.337-56.537
	C203.445,203.828,199.392,188.284,191.653,174.483L191.653,174.483z"/>
<path fill="#3A1244" d="M83.628,146.342c0.489,0.137,1.016,0.215,1.546,0.215c3.165,0,5.727-2.556,5.727-5.724
	c0-0.082-0.003-0.175-0.009-0.274l0,0c-0.043-0.83-0.066-1.677-0.066-2.51c0-29.048,23.588-52.622,52.653-52.622
	c5.855,0,11.667,0.978,17.209,2.896l0,0c0.594,0.207,1.24,0.316,1.869,0.316c1.193,0,2.353-0.374,3.328-1.065l-0.003-0.003
	c12.161-8.68,26.095-14.578,40.812-17.282l0,0c2.702-0.497,4.682-2.866,4.682-5.624c0-1.684-0.743-3.277-2.032-4.354v-0.006
	c-18.406-15.582-41.75-24.142-65.865-24.142c-14.49,0-28.788,3.086-41.98,9.049l0,0c-3.424,1.536-5.602,4.938-5.602,8.683
	c0,0.804,0.087,1.616,0.294,2.403l0,0c0.62,2.331,0.912,4.726,0.912,7.126c0,12.206-7.809,23.031-19.402,26.858l0,0
	c-4.53,1.563-9.287,2.36-14.083,2.36c-17.005,0-32.421-10.019-39.333-25.564l0,0c-0.603-1.374-1.965-2.264-3.479-2.264
	c-2.102,0-3.82,1.702-3.82,3.807c0,0.167,0.012,0.328,0.035,0.483h0.003C21.708,105.872,47.934,136.274,83.628,146.342
	L83.628,146.342z"/>
</svg>
