<?xml version="1.0" encoding="utf-8"?>
<!-- Generator: Adobe Illustrator 16.0.0, SVG Export Plug-In . SVG Version: 6.00 Build 0)  -->
<!DOCTYPE svg PUBLIC "-//W3C//DTD SVG 1.1//EN" "http://www.w3.org/Graphics/SVG/1.1/DTD/svg11.dtd">
<svg version="1.1" xmlns="http://www.w3.org/2000/svg" xmlns:xlink="http://www.w3.org/1999/xlink" x="0px" y="0px" width="1024px"
	 height="1024px" viewBox="0 0 1024 1024" enable-background="new 0 0 1024 1024" xml:space="preserve">
<g id="Icon">
	<path fill="#FFFFFF" d="M1024,232.51v558.98C1024,919.9,919.9,1024,791.49,1024H232.51C104.1,1024,0,919.9,0,791.49V232.51
		C0,104.1,104.1,0,232.51,0h558.98C919.9,0,1024,104.1,1024,232.51z"/>
</g>
<g id="Symbol">
	<path fill="#49B7C4" d="M458.015,790.051c0,38.521,31.254,69.699,69.729,69.699c38.492,0,69.746-31.179,69.746-69.699l0,0
		c0-38.465-31.254-69.644-69.746-69.644C489.269,720.407,458.015,751.586,458.015,790.051L458.015,790.051z"/>
	<path fill="#FF5900" d="M218.486,212.055c0,38.521,31.217,69.7,69.709,69.7c38.512,0,69.736-31.179,69.736-69.7l0,0
		c0-38.464-31.225-69.662-69.736-69.662C249.703,142.393,218.486,173.591,218.486,212.055L218.486,212.055z"/>
	<path fill="#3A1244" d="M682.33,568.38c-3.223-5.772-9.35-9.359-15.98-9.359c-5.213,0-10.125,2.186-13.592,5.997l0,0
		c-32.02,35.195-77.424,55.296-125.014,55.296c-64.684,0-123.67-36.896-151.879-95.068v0.019
		c-2.623-5.324-7.641-9.098-13.543-10.051l0,0c-47.291-7.92-92.322-26.135-131.749-53.354l0,0c-3.063-2.111-6.744-3.213-10.48-3.213
		c-10.069,0-18.298,8.22-18.298,18.308c0,0.542,0.027,1.027,0.047,1.532l0,0c10.424,125.725,92.322,234.28,210.359,278.816l0,0
		c3.512,1.289,7.154,1.943,10.834,1.943c10.873,0,20.904-5.717,26.389-15.095l0,0c16.316-27.761,46.086-44.835,78.321-44.835
		c14.17,0,28.18,3.344,40.809,9.714l0,0c47.545,23.091,77.686,71.251,77.686,124.118c0,16.943-3.129,33.775-9.246,49.58l0,0
		c-0.486,1.4-0.822,2.896-0.822,4.39c0,6.763,5.52,12.255,12.291,12.255c3.766,0,7.342-1.774,9.65-4.764l0,0
		c40.201-51.915,62.039-115.73,62.039-181.375C720.15,662.533,707.139,612.654,682.33,568.38L682.33,568.38z"/>
	<path fill="#3A1244" d="M335.748,478.094c1.568,0.43,3.25,0.691,4.951,0.691c10.152,0,18.381-8.201,18.381-18.363
		c0-0.262-0.018-0.561-0.037-0.879l0,0c-0.131-2.672-0.205-5.38-0.205-8.051c0-93.201,75.668-168.822,168.907-168.822
		c18.803,0,37.428,3.139,55.23,9.284l0,0c1.896,0.673,3.971,1.009,5.996,1.009c3.82,0,7.539-1.195,10.668-3.399v-0.019
		c39.006-27.854,83.711-46.778,130.928-55.446l0,0c8.676-1.588,15.029-9.19,15.029-18.046c0-5.398-2.393-10.499-6.521-13.955v-0.019
		c-59.061-50.01-133.943-77.452-211.33-77.452c-46.469,0-92.35,9.883-134.672,29.03l0,0c-10.986,4.914-17.963,15.842-17.963,27.854
		c0,2.577,0.271,5.174,0.924,7.715l0,0c2.01,7.473,2.943,15.15,2.943,22.848c0,39.174-25.043,73.884-62.256,86.176l0,0
		c-14.523,5.007-29.796,7.566-45.18,7.566c-54.549,0-104.026-32.132-126.191-82.011l0,0c-1.934-4.409-6.296-7.268-11.162-7.268
		c-6.735,0-12.255,5.455-12.255,12.218c0,0.542,0.056,1.046,0.112,1.551l0,0C137.083,348.26,221.242,445.794,335.748,478.094
		L335.748,478.094z"/>
</g>
</svg>
